<svg enable-background="new 0 0 60 60" height="512" viewBox="0 0 60 60" width="512" fill="#4e9e96" xmlns="http://www.w3.org/2000/svg"><path d="m4 12c-2.206 0-4-1.794-4-4s1.794-4 4-4 4 1.794 4 4-1.794 4-4 4zm0-6c-1.103 0-2 .897-2 2s.897 2 2 2 2-.897 2-2-.897-2-2-2z"/><path d="m19 8c-2.206 0-4-1.794-4-4s1.794-4 4-4 4 1.794 4 4-1.794 4-4 4zm0-6c-1.103 0-2 .897-2 2s.897 2 2 2 2-.897 2-2-.897-2-2-2z"/><path d="m56 21c-2.206 0-4-1.794-4-4s1.794-4 4-4 4 1.794 4 4-1.794 4-4 4zm0-6c-1.103 0-2 .897-2 2s.897 2 2 2 2-.897 2-2-.897-2-2-2z"/><path d="m43 60c-2.206 0-4-1.794-4-4s1.794-4 4-4 4 1.794 4 4-1.794 4-4 4zm0-6c-1.103 0-2 .897-2 2s.897 2 2 2 2-.897 2-2-.897-2-2-2z"/><path d="m56 49c-2.206 0-4-1.794-4-4s1.794-4 4-4 4 1.794 4 4-1.794 4-4 4zm0-6c-1.103 0-2 .897-2 2s.897 2 2 2 2-.897 2-2-.897-2-2-2z"/><path d="m13 57c-2.206 0-4-1.794-4-4s1.794-4 4-4 4 1.794 4 4-1.794 4-4 4zm0-6c-1.103 0-2 .897-2 2s.897 2 2 2 2-.897 2-2-.897-2-2-2z"/><path d="m4 45c-2.206 0-4-1.794-4-4s1.794-4 4-4 4 1.794 4 4-1.794 4-4 4zm0-6c-1.103 0-2 .897-2 2s.897 2 2 2 2-.897 2-2-.897-2-2-2z"/><path d="m46 8c-2.206 0-4-1.794-4-4s1.794-4 4-4 4 1.794 4 4-1.794 4-4 4zm0-6c-1.103 0-2 .897-2 2s.897 2 2 2 2-.897 2-2-.897-2-2-2z"/><path d="m30 48c-9.925 0-18-8.075-18-18s8.075-18 18-18 18 8.075 18 18-8.075 18-18 18zm0-34c-8.823 0-16 7.178-16 16s7.177 16 16 16 16-7.178 16-16-7.177-16-16-16z"/><path d="m17 31c-.552 0-1-.447-1-1 0-7.72 6.28-14 14-14 .552 0 1 .447 1 1s-.448 1-1 1c-6.617 0-12 5.383-12 12 0 .553-.448 1-1 1z"/><path d="m30 44c-.552 0-1-.447-1-1s.448-1 1-1c6.617 0 12-5.383 12-12 0-.553.448-1 1-1s1 .447 1 1c0 7.72-6.28 14-14 14z"/><path d="m32 31h-6c-.552 0-1-.447-1-1v-6c0-.553.448-1 1-1h6c2.206 0 4 1.794 4 4s-1.794 4-4 4zm-5-2h5c1.103 0 2-.897 2-2s-.897-2-2-2h-5z"/><path d="m32 37h-6c-.552 0-1-.447-1-1v-6c0-.553.448-1 1-1h6c2.206 0 4 1.794 4 4s-1.794 4-4 4zm-5-2h5c1.103 0 2-.897 2-2s-.897-2-2-2h-5z"/><path d="m28 25c-.552 0-1-.447-1-1v-3c0-.553.448-1 1-1s1 .447 1 1v3c0 .553-.448 1-1 1z"/><path d="m32 25c-.552 0-1-.447-1-1v-3c0-.553.448-1 1-1s1 .447 1 1v3c0 .553-.448 1-1 1z"/><path d="m28 40c-.552 0-1-.447-1-1v-3c0-.553.448-1 1-1s1 .447 1 1v3c0 .553-.448 1-1 1z"/><path d="m32 40c-.552 0-1-.447-1-1v-3c0-.553.448-1 1-1s1 .447 1 1v3c0 .553-.448 1-1 1z"/><path d="m26 25h-2c-.552 0-1-.447-1-1s.448-1 1-1h2c.552 0 1 .447 1 1s-.448 1-1 1z"/><path d="m26 37h-2c-.552 0-1-.447-1-1s.448-1 1-1h2c.552 0 1 .447 1 1s-.448 1-1 1z"/><path d="m17 20h-5c-4.963 0-9-4.037-9-9 0-.553.448-1 1-1s1 .447 1 1c0 3.859 3.14 7 7 7h5c.552 0 1 .447 1 1s-.448 1-1 1z"/><path d="m24 54h-8c-.552 0-1-.447-1-1s.448-1 1-1h8c2.757 0 5-2.243 5-5 0-.553.448-1 1-1s1 .447 1 1c0 3.859-3.14 7-7 7z"/><path d="m17 42h-10c-.552 0-1-.447-1-1s.448-1 1-1h10c.552 0 1 .447 1 1s-.448 1-1 1z"/><path d="m30 8c-.552 0-1-.447-1-1 0-1.103-.897-2-2-2h-5c-.552 0-1-.447-1-1s.448-1 1-1h5c2.206 0 4 1.794 4 4 0 .553-.448 1-1 1z"/><path d="m30 14c-.552 0-1-.447-1-1v-6c0-.553.448-1 1-1s1 .447 1 1v6c0 .553-.448 1-1 1z"/><path d="m38 16c-.552 0-1-.447-1-1 0-2.206 1.794-4 4-4h3c.552 0 1-.448 1-1v-3c0-.553.448-1 1-1s1 .447 1 1v3c0 1.654-1.346 3-3 3h-3c-1.103 0-2 .897-2 2 0 .553-.448 1-1 1z"/><path d="m47 31c-.552 0-1-.447-1-1 0-2.206 1.794-4 4-4h4c.552 0 1-.448 1-1v-5c0-.553.448-1 1-1s1 .447 1 1v5c0 1.654-1.346 3-3 3h-4c-1.103 0-2 .897-2 2 0 .553-.448 1-1 1z"/><path d="m56 43c-.552 0-1-.447-1-1v-3c0-.552-.448-1-1-1h-5c-2.079 0-3.475-1.607-3.475-4 0-.553.448-1 1-1s1 .447 1 1c0 .602.144 2 1.475 2h5c1.654 0 3 1.346 3 3v3c0 .553-.448 1-1 1z"/><path d="m43 51c-.552 0-1-.447-1-1 0-.552-.448-1-1-1-2.206 0-4-1.794-4-4 0-.553.448-1 1-1s1 .447 1 1c0 1.103.897 2 2 2 1.654 0 3 1.346 3 3 0 .553-.448 1-1 1z"/><path d="m43 54c-.552 0-1-.447-1-1v-3c0-.553.448-1 1-1s1 .447 1 1v3c0 .553-.448 1-1 1z"/></svg>