<svg id="Layer_3" enable-background="new 0 0 64 64" height="512" viewBox="0 0 64 64" fill="#4e9e96" width="512" xmlns="http://www.w3.org/2000/svg"><path d="m62 9h-20.202c-.929-4.559-4.969-8-9.798-8s-8.869 3.441-9.798 8h-20.202c-.553 0-1 .448-1 1v14c0 .552.447 1 1 1h1v37c0 .552.447 1 1 1h56c.553 0 1-.448 1-1v-37h1c.553 0 1-.448 1-1v-14c0-.552-.447-1-1-1zm-30-6c4.411 0 8 3.589 8 8s-3.589 8-8 8-8-3.589-8-8 3.589-8 8-8zm-27 50h4v8h-4zm38 0h4v8h-4zm10 0v8h-4v-8zm-12 8h-8v-16h8zm-10 0h-8v-16h8zm-10 0h-4v-8h4zm-6 0h-4v-8h4zm40 0v-8h4v8zm4-10h-16v-7c0-.552-.447-1-1-1h-20c-.553 0-1 .448-1 1v7h-16v-26h54zm2-28h-1-56-1v-12h19c0 5.514 4.486 10 10 10s10-4.486 10-10h19z"/><path d="m12 39h40c.553 0 1-.448 1-1v-10c0-.552-.447-1-1-1h-40c-.553 0-1 .448-1 1v10c0 .552.447 1 1 1zm39-2h-18v-8h18zm-38-8h18v8h-18z"/><path d="m27 51h2v4h-2z"/><path d="m35 51h2v4h-2z"/><path d="m27.586 16c.646.645 1.503 1 2.414 1s1.769-.355 2.414-1l4.586-4.585c.645-.645 1-1.502 1-2.415s-.355-1.77-1-2.414l-.586-.586c-1.291-1.289-3.537-1.29-4.828 0l-4.586 4.586c-.645.644-1 1.501-1 2.414s.355 1.77 1 2.414zm5.414-8.585c.268-.268.622-.415 1-.415s.732.147 1 .414l.586.586c.268.267.414.622.414 1s-.146.733-.414 1l-1.586 1.586-2.586-2.586zm-4.586 4.585 1.586-1.586 2.586 2.586-1.586 1.585c-.535.535-1.465.535-2 0l-.586-.585c-.268-.267-.414-.622-.414-1s.146-.733.414-1z"/><path d="m15.172 32h5.657v2h-5.657z" transform="matrix(.707 -.707 .707 .707 -18.062 22.393)"/><path d="m23.172 32h5.657v2h-5.657z" transform="matrix(.707 -.707 .707 .707 -15.719 28.05)"/><path d="m35.172 32h5.657v2h-5.657z" transform="matrix(.707 -.707 .707 .707 -12.205 36.536)"/><path d="m43.172 32h5.657v2h-5.657z" transform="matrix(.707 -.707 .707 .707 -9.861 42.192)"/></svg>