<svg id="Layer_1_1_" enable-background="new 0 0 96 96" height="512" viewBox="0 0 96 96" fill="#4e9e96" width="512" xmlns="http://www.w3.org/2000/svg"><circle cx="20" cy="16" r="1"/><path d="m93 66h-7.586l-3.707-3.707c-.187-.188-.441-.293-.707-.293h-2.894c-2.006-8.869-7.342-16.633-14.871-21.684 1.064-.719 1.765-1.937 1.765-3.316 0-1.2-.542-2.266-1.382-3 .84-.734 1.382-1.8 1.382-3s-.542-2.266-1.382-3c.84-.734 1.382-1.8 1.382-3s-.542-2.266-1.382-3c.84-.734 1.382-1.8 1.382-3 0-2.206-1.794-4-4-4h-3v-3.586l4.293-4.293c.874-.874 1.123-2.127.65-3.269-.473-1.143-1.535-1.852-2.771-1.852h-24.344c-1.236 0-2.298.709-2.771 1.852-.473 1.142-.224 2.395.65 3.269l2.879 2.879h-5.586c-.266 0-.52.105-.707.293l-2.707 2.707h-2.586v-1c0-.552-.447-1-1-1h-20c-.553 0-1 .448-1 1v28c0 .552.447 1 1 1h20c.553 0 1-.448 1-1v-.382l2.553 1.276c.138.07.292.106.447.106h6c.553 0 1-.448 1-1s-.447-1-1-1h-5.764l-3.789-1.895c-.311-.154-.678-.138-.973.044s-.474.504-.474.851v1h-6v-26h6v21c0 .552.447 1 1 1s1-.448 1-1v-19h3c.266 0 .52-.105.707-.293l2.707-2.707h6.586v3h-1c-.553 0-1 .448-1 1s.447 1 1 1h24c1.103 0 2 .897 2 2s-.897 2-2 2h-20c-.553 0-1 .448-1 1s.447 1 1 1h20c1.103 0 2 .897 2 2s-.897 2-2 2h-20c-.553 0-1 .448-1 1s.447 1 1 1h20c1.103 0 2 .897 2 2s-.897 2-2 2h-20c-.553 0-1 .448-1 1s.447 1 1 1h20c1.103 0 2 .897 2 2s-.897 2-2 2h-21c-.022 0-.041.011-.063.013-.066.004-.128.022-.192.039-.066.018-.13.034-.19.065-.019.01-.04.009-.059.02-14.31 8.347-21.004 25.848-15.918 41.613l.768 2.382c.317.983.061 2.048-.669 2.778-1.381 1.381-1.775 3.36-1.027 5.165.746 1.804 2.424 2.925 4.377 2.925h17.973c.553 0 1-.448 1-1s-.447-1-1-1h-17.973c-1.35 0-2.191-.874-2.53-1.691s-.36-2.031.594-2.985c1.264-1.264 1.707-3.105 1.159-4.806l-.768-2.382c-4.774-14.795 1.451-31.207 14.8-39.136h20.294c7.788 4.629 13.368 12.221 15.478 21h-9.054c-2.206 0-4 1.794-4 4 0 .716.202 1.396.554 2h-12.554c-1.066 0-2.071.417-2.827 1.173-.757.756-1.173 1.76-1.173 2.827 0 1.2.542 2.266 1.382 3-.84.734-1.382 1.8-1.382 3 0 1.067.416 2.071 1.173 2.827.065.065.141.113.21.173-.84.734-1.383 1.8-1.383 3 0 1.067.416 2.071 1.173 2.827.065.065.141.113.21.173-.84.734-1.383 1.8-1.383 3 0 1.067.416 2.071 1.173 2.827.756.756 1.761 1.173 2.827 1.173h34c.155 0 .309-.036.447-.105l3.789-1.895h3.764c.553 0 1-.448 1-1v-24c0-.552-.447-1-1-1zm-78-27h-10v-26h10zm41-24h-16v-2h16zm0-4h-16c0-.13-.026-.26-.077-.382-.051-.123-.124-.233-.217-.326l-4.585-4.585c-.438-.438-.276-.945-.217-1.09.061-.144.304-.617.924-.617h24.344c.62 0 .863.473.924.617.06.145.222.651-.217 1.09l-4.586 4.586c-.188.187-.293.442-.293.707zm36 79h-3c-.155 0-.309.036-.447.105l-3.789 1.895h-33.764c-.532 0-1.034-.208-1.413-.587s-.587-.88-.587-1.413c0-1.103.897-2 2-2h21c.553 0 1-.448 1-1s-.447-1-1-1h-21c-.532 0-1.034-.208-1.413-.587s-.587-.88-.587-1.413c0-1.103.897-2 2-2h21c.553 0 1-.448 1-1s-.447-1-1-1h-21c-.532 0-1.034-.208-1.413-.587s-.587-.88-.587-1.413c0-1.103.897-2 2-2h21c.553 0 1-.448 1-1s-.447-1-1-1h-21c-1.103 0-2-.897-2-2 0-.533.208-1.035.587-1.413s.881-.587 1.413-.587h25c.553 0 1-.448 1-1s-.447-1-1-1h-9c-.532 0-1.034-.208-1.413-.587s-.587-.88-.587-1.413c0-1.103.897-2 2-2h13.586l3.707 3.707c.187.188.441.293.707.293h7z"/><path d="m51 61h-2c-.552 0-1-.449-1-1 0-.552-.447-1-1-1s-1 .448-1 1c0 1.654 1.346 3 3 3v1c0 .552.447 1 1 1s1-.448 1-1v-1c1.654 0 3-1.346 3-3v-2c0-1.654-1.346-3-3-3h-2c-.552 0-1-.449-1-1v-2c0-.551.448-1 1-1h2c.552 0 1 .449 1 1 0 .552.447 1 1 1s1-.448 1-1c0-1.654-1.346-3-3-3v-1c0-.552-.447-1-1-1s-1 .448-1 1v1c-1.654 0-3 1.346-3 3v2c0 1.654 1.346 3 3 3h2c.552 0 1 .449 1 1v2c0 .551-.448 1-1 1z"/><circle cx="58" cy="56" r="1"/><circle cx="42" cy="56" r="1"/><path d="m82 41c0 .552.447 1 1 1s1-.448 1-1c0-3.86 3.141-7 7-7 .553 0 1-.448 1-1s-.447-1-1-1c-3.859 0-7-3.14-7-7 0-.552-.447-1-1-1s-1 .448-1 1c0 3.86-3.141 7-7 7-.553 0-1 .448-1 1s.447 1 1 1c3.859 0 7 3.14 7 7zm1-11.879c.858 1.66 2.219 3.021 3.879 3.879-1.66.858-3.021 2.219-3.879 3.879-.858-1.66-2.219-3.021-3.879-3.879 1.66-.858 3.021-2.219 3.879-3.879z"/><path d="m10 93c0 .552.447 1 1 1s1-.448 1-1c0-3.86 3.141-7 7-7 .553 0 1-.448 1-1s-.447-1-1-1c-3.859 0-7-3.14-7-7 0-.552-.447-1-1-1s-1 .448-1 1c0 3.86-3.141 7-7 7-.553 0-1 .448-1 1s.447 1 1 1c3.859 0 7 3.14 7 7zm1-11.879c.858 1.66 2.219 3.021 3.879 3.879-1.66.858-3.021 2.219-3.879 3.879-.858-1.66-2.219-3.021-3.879-3.879 1.66-.858 3.021-2.219 3.879-3.879z"/><path d="m59 65c.553 0 1-.448 1-1 0-2.757 2.243-5 5-5 .553 0 1-.448 1-1s-.447-1-1-1c-3.859 0-7 3.14-7 7 0 .552.447 1 1 1z"/><circle cx="37" cy="89" r="1"/><circle cx="33" cy="89" r="1"/><circle cx="29" cy="89" r="1"/></svg>