<svg id="Layer_5" fill="#4e9e96" enable-background="new 0 0 64 64" height="512" viewBox="0 0 64 64" width="512" xmlns="http://www.w3.org/2000/svg"><path d="m53 29c5.514 0 10-4.486 10-10s-4.486-10-10-10-10 4.486-10 10c0 1.294.255 2.528.705 3.664l-4.939 4.528c-2-1.217-4.299-1.977-6.766-2.141v-4.101c5.046-.504 9-4.773 9-9.949 0-5.514-4.486-10-10-10s-10 4.485-10 9.999c0 5.176 3.954 9.446 9 9.949v4.101c-2.269.151-4.402.797-6.286 1.849l-3.552-3.906c.536-1.225.838-2.574.838-3.993 0-5.514-4.486-10-10-10s-10 4.486-10 10 4.486 10 10 10c3.344 0 6.301-1.655 8.118-4.183l2.904 3.195c-1.134.851-2.141 1.856-2.994 2.988h-10.028c-2.757 0-5 2.243-5 5v22c0 2.757 2.243 5 5 5h46c2.757 0 5-2.243 5-5v-22c0-2.757-2.243-5-5-5h-12.028c-.736-.976-1.577-1.866-2.524-2.637l4.211-3.861c1.791 2.707 4.859 4.498 8.341 4.498zm-46.792-3.609c1.125-1.491 2.896-2.391 4.792-2.391s3.667.9 4.792 2.391c-1.338 1.005-2.994 1.609-4.792 1.609s-3.454-.604-4.792-1.609zm1.792-7.391c0-1.654 1.346-3 3-3s3 1.346 3 3-1.346 3-3 3-3-1.346-3-3zm9.232 6.004c-.792-.986-1.796-1.763-2.931-2.278 1.034-.917 1.699-2.239 1.699-3.726 0-2.757-2.243-5-5-5s-5 2.243-5 5c0 1.487.665 2.809 1.699 3.726-1.135.516-2.139 1.292-2.931 2.278-1.104-1.371-1.768-3.111-1.768-5.004 0-4.411 3.589-8 8-8s8 3.589 8 8c0 1.893-.664 3.633-1.768 5.004zm10.768-14.004c0-1.654 1.346-3 3-3s3 1.346 3 3-1.346 3-3 3-3-1.346-3-3zm3 9c-1.798 0-3.454-.604-4.792-1.609 1.125-1.491 2.896-2.391 4.792-2.391s3.667.9 4.792 2.391c-1.338 1.005-2.994 1.609-4.792 1.609zm-8-8c0-4.411 3.589-8 8-8s8 3.589 8 8c0 1.893-.664 3.633-1.768 5.004-.792-.986-1.796-1.763-2.931-2.278 1.034-.917 1.699-2.239 1.699-3.726 0-2.757-2.243-5-5-5s-5 2.243-5 5c0 1.487.665 2.809 1.699 3.726-1.135.516-2.139 1.292-2.931 2.278-1.104-1.371-1.768-3.111-1.768-5.004zm-17 32h1c.551 0 1 .448 1 1v6c0 .552-.449 1-1 1h-1zm52-7v22c0 1.654-1.346 3-3 3h-1v-28h1c1.654 0 3 1.346 3 3zm-6-3v28h-43c-1.654 0-3-1.346-3-3v-5h1c1.654 0 3-1.346 3-3v-6c0-1.654-1.346-3-3-3h-1v-5c0-1.654 1.346-3 3-3h8.744c-.339.639-.623 1.31-.868 2h-2.876c-1.103 0-2 .897-2 2v20c0 1.103.897 2 2 2h34c1.103 0 2-.897 2-2v-20c0-1.103-.897-2-2-2h-2.875c-.245-.69-.529-1.361-.868-2zm-6.302 4h2.302v20h-34v-20h2.302c-.197.97-.302 1.973-.302 3 0 8.271 6.729 15 15 15s15-6.729 15-15c0-1.027-.105-2.03-.302-3zm-1.698 3c0 7.168-5.832 13-13 13s-13-5.832-13-13 5.832-13 13-13 13 5.832 13 13zm4.208-14.609c1.125-1.491 2.896-2.391 4.792-2.391s3.667.9 4.792 2.391c-1.338 1.005-2.994 1.609-4.792 1.609s-3.454-.604-4.792-1.609zm1.792-7.391c0-1.654 1.346-3 3-3s3 1.346 3 3-1.346 3-3 3-3-1.346-3-3zm3-7c4.411 0 8 3.589 8 8 0 1.893-.664 3.633-1.768 5.004-.792-.986-1.796-1.763-2.931-2.278 1.034-.917 1.699-2.239 1.699-3.726 0-2.757-2.243-5-5-5s-5 2.243-5 5c0 1.487.665 2.809 1.699 3.726-1.135.516-2.139 1.292-2.931 2.278-1.104-1.371-1.768-3.111-1.768-5.004 0-4.411 3.589-8 8-8z"/><path d="m31 29c-6.065 0-11 4.935-11 11s4.935 11 11 11 11-4.935 11-11-4.935-11-11-11zm0 20c-4.962 0-9-4.037-9-9s4.038-9 9-9 9 4.037 9 9-4.038 9-9 9z"/><path d="m31 37c.551 0 1 .448 1 1h2c0-1.302-.839-2.402-2-2.816v-2.184h-2v2h-2v3c0 1.654 1.346 3 3 3 .551 0 1 .448 1 1v1h-1c-.551 0-1-.448-1-1h-2c0 1.302.839 2.402 2 2.816v2.184h2v-2h2v-3c0-1.654-1.346-3-3-3-.551 0-1-.448-1-1v-1z"/><path d="m44 53h2v2h-2z"/><path d="m44 49h2v2h-2z"/><path d="m16 53h2v2h-2z"/><path d="m16 49h2v2h-2z"/><path d="m24 39h2v2h-2z"/><path d="m36 39h2v2h-2z"/></svg>