<?xml version="1.0" standalone="no"?>
<!DOCTYPE svg PUBLIC "-//W3C//DTD SVG 20010904//EN"
 "http://www.w3.org/TR/2001/REC-SVG-20010904/DTD/svg10.dtd">
<svg version="1.0" xmlns="http://www.w3.org/2000/svg"
 width="1123.000000pt" height="1123.000000pt" viewBox="0 0 1123.000000 1123.000000"
 preserveAspectRatio="xMidYMid meet">
<metadata>
Created by potrace 1.11, written by Peter Selinger 2001-2013
</metadata>
<g transform="translate(0.000000,1123.000000) scale(0.100000,-0.100000)"
fill="#000000" stroke="none">
<path d="M4503 7482 c-20 -2 -47 -17 -74 -43 -23 -21 -44 -39 -48 -40 -98 -11
-306 -82 -366 -123 -98 -69 -162 -175 -183 -305 -8 -47 -8 -303 0 -361 14
-104 66 -302 105 -400 4 -8 7 -17 8 -20 7 -21 33 -78 70 -156 25 -52 45 -98
45 -103 0 -5 4 -11 9 -13 12 -4 121 -175 121 -189 0 -39 29 -96 70 -137 48
-49 105 -100 131 -117 9 -5 47 -31 85 -56 86 -58 146 -85 235 -108 38 -10 72
-21 76 -25 5 -4 9 -157 10 -339 1 -412 7 -470 55 -612 60 -176 133 -289 264
-405 161 -142 374 -206 589 -177 171 23 341 95 487 204 113 85 222 193 278
273 13 19 27 37 30 40 26 21 180 304 180 330 0 6 5 10 10 10 6 0 10 7 10 15 0
8 9 34 19 57 11 24 36 86 56 138 76 199 142 351 176 410 5 8 19 34 31 58 12
23 26 42 31 42 4 0 5 5 2 10 -3 6 -2 10 4 10 5 0 12 9 16 19 4 13 19 21 49 25
54 8 152 55 192 92 83 78 118 158 126 289 1 22 -14 100 -23 117 -5 10 -7 18
-4 18 3 0 -6 18 -20 40 -14 22 -25 42 -25 45 0 6 -55 61 -86 85 -10 9 -35 23
-54 32 -198 92 -409 22 -513 -171 -15 -28 -25 -51 -23 -51 2 0 -2 -19 -8 -42
-25 -83 0 -210 56 -292 32 -46 88 -95 135 -120 l43 -21 -45 -60 c-37 -49 -135
-230 -135 -249 0 -2 -5 -17 -11 -33 -6 -15 -10 -30 -11 -33 0 -3 -6 -16 -13
-30 -7 -14 -19 -41 -26 -60 -6 -19 -18 -48 -24 -65 -7 -16 -39 -95 -70 -175
-143 -361 -308 -573 -570 -733 -58 -35 -169 -85 -210 -93 -84 -18 -119 -22
-180 -19 -38 2 -86 6 -105 10 -35 7 -131 44 -140 54 -3 4 -17 13 -32 21 -118
66 -258 291 -299 480 -5 25 -12 55 -14 67 -20 86 -32 768 -14 789 6 7 18 12
27 12 82 -4 306 112 417 217 28 26 65 60 83 76 34 30 71 99 72 133 0 11 27 62
61 113 82 127 139 238 184 358 20 55 41 107 45 116 9 17 55 218 66 284 11 70
12 322 2 367 -5 24 -11 48 -12 53 -1 6 -12 37 -24 70 -38 101 -103 169 -209
220 -39 19 -78 35 -86 35 -7 0 -17 3 -21 8 -4 4 -11 7 -14 7 -4 1 -25 5 -47
10 -22 4 -43 8 -47 7 -5 -1 -8 3 -8 9 0 5 -4 8 -9 4 -17 -10 -93 19 -115 45
-31 35 -58 49 -104 51 -37 3 -56 -5 -103 -43 -20 -16 -38 -75 -34 -112 4 -37
44 -93 75 -106 43 -18 64 -18 109 -3 35 12 52 12 91 3 26 -6 55 -12 64 -14 8
-1 19 -5 22 -9 4 -4 17 -7 28 -7 27 0 104 -29 138 -52 14 -10 30 -18 35 -18
15 0 64 -69 79 -113 9 -23 17 -62 20 -87 5 -59 5 -207 -1 -245 -2 -16 -6 -46
-9 -65 -13 -101 -30 -170 -70 -285 -42 -122 -139 -318 -179 -363 -8 -9 -18
-27 -21 -39 -4 -13 -12 -23 -17 -23 -5 0 -9 -7 -9 -15 0 -9 -20 -24 -45 -35
-25 -11 -75 -49 -113 -86 -174 -172 -335 -240 -492 -209 -19 4 -40 8 -47 9 -7
1 -16 5 -19 9 -4 4 -16 7 -26 7 -10 0 -18 5 -18 12 0 6 -3 8 -7 5 -6 -7 -67
26 -89 48 -6 6 -35 31 -64 56 -29 24 -75 65 -103 91 -28 26 -61 49 -73 52 -21
6 -74 50 -74 61 0 3 -16 30 -36 61 -61 95 -150 287 -180 389 -27 92 -52 185
-49 185 3 0 0 12 -6 27 -14 38 -21 109 -22 238 -1 222 60 320 233 375 35 11
78 23 94 26 17 3 47 10 67 16 28 8 46 7 75 -3 103 -35 188 16 199 120 3 29 -2
48 -22 79 -15 22 -34 43 -42 46 -44 16 -69 21 -98 18z m2639 -1459 c97 -57
150 -139 154 -238 4 -115 -52 -214 -152 -265 -63 -32 -188 -35 -244 -6 -45 23
-107 82 -127 121 -35 65 -44 168 -21 223 6 15 12 30 12 33 1 3 12 22 26 42 26
37 90 84 144 103 51 19 166 12 208 -13z"/>
<path d="M6942 5931 c-50 -28 -58 -35 -77 -65 -22 -34 -28 -106 -13 -158 15
-51 66 -97 124 -112 42 -11 55 -10 95 4 78 29 114 72 125 151 11 74 -30 145
-103 182 -38 19 -116 18 -151 -2z"/>
<path d="M4840 7065 c-25 -13 -50 -28 -56 -33 -18 -16 -205 -122 -215 -122 -5
0 -9 -4 -9 -10 0 -5 -4 -10 -9 -10 -19 0 -121 -65 -121 -77 0 -7 4 -13 9 -13
9 0 124 -65 319 -180 107 -63 126 -71 156 -66 19 4 36 10 38 14 2 4 97 61 211
126 119 67 205 122 200 127 -10 10 -114 74 -163 101 -19 10 -48 27 -65 37 -16
10 -46 27 -65 38 -19 11 -57 34 -85 51 -71 43 -92 46 -145 17z"/>
<path d="M5375 6776 c-11 -7 -40 -24 -65 -38 -25 -14 -88 -50 -140 -80 -135
-77 -190 -109 -226 -128 l-31 -17 -1 -277 0 -277 22 7 c11 4 40 19 64 35 24
16 44 29 46 29 2 0 55 30 117 66 63 37 141 82 174 100 l60 33 1 280 c1 155 1
281 0 281 -1 0 -10 -6 -21 -14z"/>
<path d="M4409 6778 c0 -2 -2 -28 -4 -58 -2 -31 -4 -60 -5 -65 -1 -6 -2 -14
-1 -20 1 -5 2 -97 3 -203 l0 -194 32 -19 c17 -11 43 -25 59 -32 15 -6 27 -15
27 -19 0 -5 7 -8 15 -8 8 0 15 -4 15 -10 0 -5 5 -10 11 -10 7 0 72 -36 145
-79 184 -109 176 -108 173 -27 -1 36 0 69 3 72 4 3 3 18 -1 32 -3 15 -6 38 -5
52 4 56 6 136 4 145 -1 6 -1 47 -1 92 l2 82 -54 33 c-29 18 -62 39 -73 46 -10
6 -30 17 -43 22 -13 6 -44 24 -68 40 -24 17 -46 30 -48 30 -3 0 -42 23 -89 50
-78 46 -95 54 -97 48z"/>
</g>
</svg>
